<?xml version="1.0" standalone="no"?>
<!DOCTYPE svg PUBLIC "-//W3C//DTD SVG 20010904//EN"
 "http://www.w3.org/TR/2001/REC-SVG-20010904/DTD/svg10.dtd">
<svg version="1.0" xmlns="http://www.w3.org/2000/svg"
 width="128.000000pt" height="128.000000pt" viewBox="0 0 128.000000 128.000000"
 preserveAspectRatio="xMidYMid meet">

<g transform="translate(0.000000,128.000000) scale(0.100000,-0.100000)"
fill="#000000" stroke="none">
<path d="M1067 983 c-4 -3 -7 -69 -7 -145 0 -131 -1 -138 -20 -138 -32 0 -89
57 -96 96 -8 44 -39 58 -110 51 -86 -9 -150 -50 -186 -120 l-19 -39 25 -23
c34 -32 35 -77 1 -103 -22 -17 -24 -24 -15 -47 45 -118 189 -176 308 -125 28
12 67 40 86 61 l35 38 3 -51 c2 -30 8 -53 16 -56 9 -3 12 62 12 302 0 248 -3
306 -13 306 -8 0 -17 -3 -20 -7z"/>
<path d="M299 812 c-210 -109 -146 -418 91 -439 51 -5 67 -2 115 21 54 27 105
79 105 108 0 8 -7 23 -16 34 -12 14 -17 16 -21 6 -12 -29 -69 -86 -100 -98
-172 -73 -322 143 -195 280 77 82 216 71 273 -21 25 -39 36 -41 51 -8 13 29
-4 61 -54 98 -75 55 -166 62 -249 19z"/>
</g>
</svg>
